<svg width="32" height="32" viewBox="0 0 32 32" fill="none" xmlns="http://www.w3.org/2000/svg">
<path d="M16 26C14.4089 26 14.0577 24.7346 14.0071 23.8475C13.9792 23.3582 14.3999 23 14.8899 23H17.1101C17.6002 23 18.0208 23.3582 17.9929 23.8475C17.9422 24.7347 17.5911 26 16 26Z" stroke="#757575"/>
<path d="M8.54942 21H23.4506C23.754 21 24 20.754 24 20.4506C24 19.6353 23.5487 18.887 22.8275 18.5067L22.5778 18.375C22.3591 18.2596 22.2222 18.0327 22.2222 17.7855V14.4717C22.2222 14.4489 22.223 14.4265 22.2242 14.4038C22.2416 14.0825 22.3444 11.5448 21.3333 10.2187C20.6919 9.37742 19.0978 8.85247 18.004 8.57888C17.4179 8.43226 17.0538 7.82103 17.0386 7.21705C17.0234 6.61643 16.8104 5.99997 16 6C15.1896 6.00003 14.9766 6.61645 14.9614 7.21703C14.9462 7.82102 14.5821 8.43227 13.996 8.57888C12.9022 8.85248 11.3081 9.37743 10.6667 10.2187C9.6556 11.5448 9.75837 14.0825 9.77578 14.4038C9.77702 14.4265 9.77778 14.4489 9.77778 14.4717V17.7855C9.77778 18.0327 9.64091 18.2596 9.42222 18.375L9.17251 18.5067C8.45135 18.887 8 19.6353 8 20.4506C8 20.754 8.24598 21 8.54942 21Z" stroke="#757575" stroke-linejoin="round"/>
</svg>
