<svg width="17" height="17" viewBox="0 0 17 17" fill="none" xmlns="http://www.w3.org/2000/svg">
<path fill-rule="evenodd" clip-rule="evenodd" d="M8.5 17C13.1944 17 17 13.1944 17 8.5C17 3.80558 13.1944 0 8.5 0C3.80558 0 0 3.80558 0 8.5C0 13.1944 3.80558 17 8.5 17ZM6.91499 5.70914C6.7793 5.80482 6.65379 5.90582 6.53845 6.01214L6.86919 6.55967C6.92347 6.66599 7.01166 6.71914 7.13378 6.71914C7.18467 6.71914 7.24233 6.69788 7.30679 6.65535C7.37124 6.60928 7.44926 6.55967 7.54085 6.50651C7.63583 6.44981 7.74947 6.40019 7.88176 6.35767C8.01745 6.3116 8.18197 6.28856 8.37533 6.28856C8.50762 6.28856 8.62974 6.30805 8.74168 6.34703C8.85702 6.38602 8.95539 6.44272 9.03681 6.51714C9.11822 6.58802 9.18097 6.67484 9.22507 6.77762C9.27256 6.87685 9.29631 6.99025 9.29631 7.11783C9.29631 7.31629 9.2556 7.48817 9.17419 7.63347C9.09617 7.77522 8.9978 7.90457 8.87907 8.02152C8.76034 8.13492 8.63313 8.24124 8.49745 8.34047C8.36176 8.43615 8.23794 8.53715 8.126 8.64347C8.01745 8.74624 7.92925 8.86142 7.86141 8.989C7.79696 9.11304 7.77491 9.25833 7.79526 9.4249L7.88176 10.2914H8.74168L8.85872 9.51527C8.87568 9.40186 8.92656 9.30086 9.01136 9.21226C9.09956 9.12012 9.20302 9.02798 9.32175 8.93584C9.44048 8.84016 9.56599 8.73916 9.69828 8.63284C9.83397 8.52652 9.95779 8.40071 10.0697 8.25542C10.1817 8.11012 10.275 7.94001 10.3496 7.7451C10.4242 7.54664 10.4615 7.31274 10.4615 7.04341C10.4615 6.76699 10.414 6.51714 10.3191 6.29388C10.2241 6.07061 10.0901 5.88102 9.91708 5.72508C9.74408 5.56561 9.53546 5.44335 9.29122 5.35829C9.05037 5.27324 8.78239 5.23071 8.48727 5.23071C8.27017 5.23071 8.06833 5.25198 7.88176 5.2945C7.69519 5.33349 7.52219 5.38842 7.36276 5.45929C7.20332 5.53017 7.05407 5.61345 6.91499 5.70914ZM7.55611 11.9659C7.5188 12.0651 7.50014 12.1696 7.50014 12.2795C7.50014 12.3929 7.5188 12.4992 7.55611 12.5984C7.59682 12.6941 7.65109 12.7774 7.71894 12.8483C7.78678 12.9192 7.86819 12.9741 7.96318 13.0131C8.05816 13.0556 8.15992 13.0769 8.26847 13.0769C8.37702 13.0769 8.47709 13.0556 8.56868 13.0131C8.66366 12.9741 8.74508 12.9192 8.81292 12.8483C8.88416 12.7774 8.94013 12.6941 8.98083 12.5984C9.02154 12.4992 9.04189 12.3929 9.04189 12.2795C9.04189 12.1696 9.02154 12.0651 8.98083 11.9659C8.94013 11.8666 8.88416 11.7816 8.81292 11.7107C8.74508 11.6398 8.66366 11.5831 8.56868 11.5406C8.47709 11.4981 8.37702 11.4768 8.26847 11.4768C8.15992 11.4768 8.05816 11.4981 7.96318 11.5406C7.86819 11.5831 7.78678 11.6398 7.71894 11.7107C7.65109 11.7816 7.59682 11.8666 7.55611 11.9659Z" fill="#E1E1E1"/>
</svg>
