<svg width="16" height="16" viewBox="0 0 16 16" fill="none" xmlns="http://www.w3.org/2000/svg">
<path fill-rule="evenodd" clip-rule="evenodd" d="M10.9952 6.49761C10.9952 8.98157 8.98157 10.9952 6.49761 10.9952C4.01365 10.9952 2 8.98157 2 6.49761C2 4.01365 4.01365 2 6.49761 2C8.98157 2 10.9952 4.01365 10.9952 6.49761ZM10.5472 11.5792C9.4366 12.4655 8.02897 12.9952 6.49761 12.9952C2.90908 12.9952 0 10.0861 0 6.49761C0 2.90908 2.90908 0 6.49761 0C10.0861 0 12.9952 2.90908 12.9952 6.49761C12.9952 7.86137 12.5751 9.12699 11.8572 10.1721L15.7594 14.0643L14.4025 15.4246L10.5472 11.5792Z" fill="#0078C0"/>
</svg>
