<svg width="18" height="18" viewBox="0 0 18 18" fill="none" xmlns="http://www.w3.org/2000/svg">
<path d="M8.99023 12.7818C6.91857 12.7818 5.21823 11.101 5.21823 9.00977C5.21823 6.93811 6.89902 5.23778 8.99023 5.23778C11.0619 5.23778 12.7622 6.91857 12.7622 9.00977C12.7622 11.0814 11.0619 12.7818 8.99023 12.7818ZM8.99023 6.62542C7.68078 6.62542 6.60587 7.70033 6.60587 9.00977C6.60587 10.3192 7.68078 11.3941 8.99023 11.3941C10.2997 11.3941 11.3746 10.3192 11.3746 9.00977C11.3746 7.70033 10.2997 6.62542 8.99023 6.62542ZM8.99023 18H8.89251C8.20847 18 7.62216 17.9218 7.58307 17.9218C7.27037 17.8828 7.03582 17.6482 6.97719 17.3355L6.78175 15.9283C6.35178 15.7915 5.94137 15.6156 5.55049 15.4006L4.43647 16.241C4.1824 16.4365 3.85017 16.4169 3.5961 16.241C3.57655 16.2215 3.1075 15.8502 2.6189 15.3811L2.54072 15.3029C2.05212 14.8143 1.70032 14.3453 1.68078 14.3257C1.48534 14.0717 1.48534 13.7394 1.68078 13.4853L2.54072 12.3518C2.32573 11.9609 2.16939 11.5309 2.03258 11.101L0.6645 10.9055C0.351796 10.8664 0.117269 10.6124 0.0781807 10.2997C0.0781807 10.2801 0 9.67427 0 8.99023V8.89251C0 8.20847 0.0781807 7.62214 0.0781807 7.58305C0.117269 7.27035 0.351796 7.03583 0.6645 6.97719L2.07166 6.78175C2.20846 6.35179 2.38437 5.94138 2.59936 5.5505L1.75896 4.43648C1.56352 4.18241 1.58306 3.85017 1.75896 3.5961C1.7785 3.57656 2.14984 3.1075 2.6189 2.6189L2.69708 2.54072C3.18568 2.05212 3.65473 1.70033 3.67428 1.68078C3.92835 1.48534 4.26058 1.48534 4.51465 1.68078L5.64821 2.54072C6.03909 2.32574 6.46907 2.16939 6.89903 2.03258L7.09447 0.664505C7.13356 0.351801 7.38763 0.117273 7.70033 0.0781854C7.71987 0.0781854 8.32573 4.77148e-06 9.00977 4.77148e-06H9.10749C9.79153 4.77148e-06 10.3779 0.0781854 10.4169 0.0781854C10.7297 0.117273 10.9642 0.351801 11.0228 0.664505L11.2182 2.07166C11.6482 2.20847 12.0586 2.38436 12.4495 2.59934L13.5635 1.75896C13.8176 1.56352 14.1498 1.58307 14.4039 1.75896C14.4234 1.77851 14.8925 2.14985 15.3811 2.6189L15.4593 2.69706C15.9479 3.18566 16.2997 3.65471 16.3192 3.67426C16.5147 3.92833 16.5147 4.26059 16.3192 4.51466L15.4593 5.64822C15.6743 6.0391 15.8306 6.46905 15.9674 6.89901L17.3355 7.09445C17.6482 7.13354 17.8827 7.38763 17.9218 7.70034C17.9218 7.71988 18 8.32573 18 9.00977V9.10749C18 9.79153 17.9218 10.3778 17.9218 10.4169C17.8827 10.7296 17.6482 10.9642 17.3355 11.0228L15.9283 11.2183C15.7915 11.6482 15.6156 12.0587 15.4007 12.4495L16.241 13.5635C16.4365 13.8176 16.4169 14.1499 16.241 14.4039C16.2215 14.4235 15.8502 14.8925 15.3811 15.3811L15.3029 15.4593C14.8143 15.9479 14.3453 16.2997 14.3257 16.3192C14.0717 16.5146 13.7394 16.5146 13.4853 16.3192L12.3518 15.4593C11.9609 15.6743 11.531 15.8306 11.101 15.9674L10.9055 17.3355C10.8665 17.6482 10.6124 17.8828 10.2997 17.9218C10.2606 17.9218 9.67427 18 8.99023 18ZM8.28665 16.5928C8.46255 16.6124 8.67752 16.6124 8.89251 16.6124H8.99023C9.20521 16.6124 9.42019 16.6124 9.59609 16.5928L9.77199 15.3029C9.81108 15.0098 10.026 14.7948 10.2997 14.7166C10.9055 14.5798 11.4919 14.3453 12.0195 14.013C12.1759 13.9153 12.3713 13.8958 12.5472 13.9348C12.6449 13.9544 12.7427 14.013 12.8208 14.0716L13.8567 14.8534C13.9935 14.7361 14.1498 14.5994 14.3062 14.443L14.3844 14.3648C14.5407 14.2084 14.6775 14.0521 14.7948 13.9153L14.013 12.8795C13.8371 12.645 13.8371 12.3323 13.9739 12.0977C14.3062 11.5896 14.5407 11.0228 14.6775 10.4365C14.7362 10.1433 14.9707 9.90878 15.2638 9.86969L16.5733 9.69381C16.5928 9.51791 16.5928 9.30294 16.5928 9.08795V8.99023C16.5928 8.77525 16.5928 8.56027 16.5733 8.38437L15.2834 8.20847C15.0098 8.16939 14.7753 7.95439 14.7166 7.68077C14.5798 7.07491 14.3453 6.50814 14.0326 5.98046C13.9935 5.94137 13.9739 5.88273 13.9544 5.82409C13.8762 5.60911 13.9153 5.35505 14.0521 5.17916L14.8534 4.12378C14.7362 3.98697 14.5994 3.83061 14.443 3.67426L14.3648 3.5961C14.2085 3.43975 14.0521 3.30292 13.9153 3.18566L12.8795 3.96742C12.6254 4.14331 12.2931 4.14331 12.0586 3.96742C11.5505 3.65471 10.9837 3.42019 10.3974 3.26384C10.1238 3.20521 9.90879 2.97068 9.86971 2.67752L9.69381 1.36808C9.51791 1.34854 9.30293 1.34854 9.08795 1.34854H8.99023C8.77524 1.34854 8.56027 1.34854 8.38437 1.36808L8.20847 2.65798C8.16938 2.97068 7.93485 3.20521 7.62215 3.2443C7.03583 3.38111 6.46906 3.61564 5.96091 3.92834C5.80456 4.02606 5.60913 4.04561 5.43323 4.00652C5.33551 3.98698 5.23779 3.92833 5.15961 3.8697L4.14331 3.08794C4.00651 3.2052 3.85017 3.34203 3.69382 3.49838L3.61564 3.57654C3.45928 3.73289 3.32248 3.88925 3.20522 4.02606L3.98698 5.0619C4.16287 5.29643 4.16286 5.58959 4.02605 5.84366C4.00651 5.8632 4.00652 5.88273 3.98698 5.90228C3.67427 6.41042 3.43974 6.97719 3.30294 7.56351C3.2443 7.83713 3.00978 8.05213 2.71662 8.09121L1.40716 8.26709C1.38761 8.44299 1.38762 8.65799 1.38762 8.87297V8.97069C1.38762 9.18568 1.38761 9.40066 1.40716 9.57655L2.69708 9.75245C3.00978 9.79154 3.24431 10.0261 3.2834 10.3388V10.3583C3.42021 10.9446 3.65473 11.4919 3.96744 12C4.06516 12.1759 4.10423 12.3909 4.02605 12.5863C4.00651 12.6645 3.94789 12.7427 3.88926 12.8208L3.12704 13.8371C3.2443 13.9739 3.3811 14.1303 3.53745 14.2866L3.61564 14.3648C3.77199 14.5212 3.92835 14.658 4.06516 14.7752L5.10097 13.9935C5.35504 13.798 5.72638 13.8176 5.96091 14.013C6.46906 14.3258 7.0163 14.5407 7.58307 14.6775C7.85669 14.7362 8.07166 14.9707 8.11075 15.2638L8.28665 16.5928Z" fill="#0078C0"/>
</svg>
